HIERARCHY
ROOT Hips
{
    OFFSET 0.000000 0.000000 0.000000
    CHANNELS 6 Xposition Yposition Zposition Zrotation Xrotation Yrotation
    JOINT Spine
    {
        OFFSET -0.000000 14.517291 0.000000
        CHANNELS 3 Zrotation Xrotation Yrotation
        JOINT Spine1
        {
            OFFSET -0.000000 37.558300 0.000000
            CHANNELS 3 Zrotation Xrotation Yrotation
            JOINT Neck
            {
                OFFSET -0.000000 37.404057 3.400369
                CHANNELS 3 Zrotation Xrotation Yrotation
                JOINT Head
                {
                    OFFSET -0.000000 24.785618 -3.540803
                    CHANNELS 3 Zrotation Xrotation Yrotation
                    End Site
                    {
                        OFFSET -0.000000 35.408028 0.000000
                    }
                }
            }
            JOINT LeftShoulder
            {
                OFFSET 6.992933 33.973492 -0.192664
                CHANNELS 3 Zrotation Xrotation Yrotation
                JOINT LeftArm
                {
                    OFFSET 21.527611 0.000000 0.000000
                    CHANNELS 3 Zrotation Xrotation Yrotation
                    JOINT LeftForeArm
                    {
                        OFFSET 56.353916 0.000000 0.000000
                        CHANNELS 3 Zrotation Xrotation Yrotation
                        JOINT LeftHand
                        {
                            OFFSET 47.774071 0.000000 0.000000
                            CHANNELS 3 Zrotation Xrotation Yrotation
                            End Site
                            {
                                OFFSET 26.556021 0.000000 0.000000
                            }
                        }
                    }
                }
            }
            JOINT RightShoulder
            {
                OFFSET -7.065357 33.973492 -0.192664
                CHANNELS 3 Zrotation Xrotation Yrotation
                JOINT RightArm
                {
                    OFFSET -21.527611 0.000000 0.000000
                    CHANNELS 3 Zrotation Xrotation Yrotation
                    JOINT RightForeArm
                    {
                        OFFSET -56.353916 0.000000 0.000000
                        CHANNELS 3 Zrotation Xrotation Yrotation
                        JOINT RightHand
                        {
                            OFFSET -47.774071 0.000000 0.000000
                            CHANNELS 3 Zrotation Xrotation Yrotation
                            End Site
                            {
                                OFFSET -26.556021 0.000000 0.000000
                            }
                        }
                    }
                }
            }
        }
    }
    JOINT LeftUpLeg
    {
        OFFSET 17.704014 0.000000 0.000000
        CHANNELS 3 Zrotation Xrotation Yrotation
        JOINT LeftLeg
        {
            OFFSET -0.000000 -81.181816 0.000000
            CHANNELS 3 Zrotation Xrotation Yrotation
            JOINT LeftFoot
            {
                OFFSET -0.000000 -62.821102 0.000000
                CHANNELS 3 Zrotation Xrotation Yrotation
                JOINT LeftToeBase
                {
                    OFFSET -0.000000 -11.507608 26.556021
                    CHANNELS 3 Zrotation Xrotation Yrotation
                    End Site
                    {
                        OFFSET -0.000000 0.000000 7.081605
                    }
                }
            }
        }
    }
    JOINT RightUpLeg
    {
        OFFSET -17.704014 0.000000 0.000000
        CHANNELS 3 Zrotation Xrotation Yrotation
        JOINT RightLeg
        {
            OFFSET -0.000000 -81.181816 0.000000
            CHANNELS 3 Zrotation Xrotation Yrotation
            JOINT RightFoot
            {
                OFFSET -0.000000 -62.821102 0.000000
                CHANNELS 3 Zrotation Xrotation Yrotation
                JOINT RightToeBase
                {
                    OFFSET -0.000000 -11.507608 26.556021
                    CHANNELS 3 Zrotation Xrotation Yrotation
                    End Site
                    {
                        OFFSET -0.000000 0.000000 7.081605
                    }
                }
            }
        }
    }
}
MOTION
Frames:    5
Frame Time:    0.008333
3.196610    144.450317    -31.615280    0.064326    2.392092    -42.534523    -0.519103    1.036959    -1.132133    3.180694    -0.042898    -0.378535    15.826853    -2.963934    11.660387    -6.937884    7.212007    8.804832    13.592784    -1.437711    -19.371813    -9.056389    -20.326328    -45.242069    10.401802    -38.748024    -17.735647    -22.899384    -29.550285    -44.469070    -6.750938    2.494719    -2.184521    35.541878    5.374859    76.013992    8.958887    0.602210    106.544701    3.001267    -10.893316    19.451950    33.194271    -26.429482    7.880239    -27.705671    44.559319    0.431331    -4.759509    -18.318811    36.397579    0.000000    0.000000    0.000000    -28.257841    -7.246715    -7.929909    5.017344    28.181362    -6.953216    20.762947    -9.556657    -15.881032    0.000000    0.000000    0.000000    
3.141400    144.370224    -31.780401    0.068443    2.391841    -42.451347    -0.594394    1.060177    -1.140179    3.205806    -0.015025    -0.382277    15.789654    -2.979298    11.650099    -6.810873    7.157833    8.805370    13.614550    -1.462849    -19.391544    -9.011479    -20.300121    -45.218288    10.439488    -38.794601    -17.747669    -22.925718    -29.577755    -44.510109    -6.733261    2.500236    -2.201560    35.552883    5.382172    76.033913    8.916717    0.512566    106.517609    3.013848    -10.917616    19.425104    33.219711    -26.534340    7.858036    -27.647255    44.603558    0.396648    -4.748435    -18.271158    36.358887    0.000000    0.000000    0.000000    -28.292587    -7.469007    -8.102296    5.056843    28.715494    -6.924683    20.734695    -9.748476    -15.815605    0.000000    0.000000    0.000000    
3.090333    144.286957    -31.940931    0.078707    2.396063    -42.378098    -0.665189    1.087255    -1.149912    3.222337    0.000050    -0.386254    15.738889    -2.995661    11.630859    -6.676871    7.101895    8.799437    13.634146    -1.476475    -19.388247    -8.978033    -20.280773    -45.218632    10.505291    -38.834053    -17.744120    -22.986797    -29.573715    -44.589741    -6.726845    2.500705    -2.200758    35.599312    5.380083    76.046776    8.900072    0.469747    106.490059    3.007952    -10.933325    19.395292    33.248623    -26.646795    7.839851    -27.603989    44.664478    0.364036    -4.731872    -18.241941    36.341335    0.000000    0.000000    0.000000    -28.331200    -7.737185    -8.260656    5.091786    29.312449    -6.945608    20.722494    -9.908088    -15.715245    0.000000    0.000000    0.000000    
3.036974    144.194000    -32.115978    0.093065    2.398974    -42.286366    -0.750723    1.128788    -1.169816    3.328230    0.018943    -0.392300    15.558070    -3.062874    11.608316    -6.544845    7.061995    8.807191    13.476210    -1.536179    -19.390976    -8.860691    -20.251040    -45.177341    10.519633    -38.850319    -17.773729    -23.015644    -29.565481    -44.643337    -6.876789    2.503876    -2.247093    35.725281    5.423631    76.148399    8.880240    0.446529    106.425117    2.945410    -10.926363    19.379776    33.276779    -26.782537    7.802556    -27.575756    44.734989    0.295574    -4.713287    -18.206245    36.364136    0.000000    0.000000    0.000000    -28.374079    -7.989226    -8.466938    5.126266    29.891706    -6.972926    20.649467    -10.075196    -15.575567    0.000000    0.000000    0.000000    
2.996423    144.092682    -32.299210    0.129698    2.424454    -42.219444    -0.827391    1.156274    -1.180692    3.315408    0.004507    -0.395886    15.613022    -3.070063    11.620175    -6.560668    7.003531    8.804050    13.515081    -1.548099    -19.379807    -8.836645    -20.295534    -45.182011    10.515629    -38.864357    -17.822718    -23.009432    -29.585066    -44.619068    -6.858744    2.497356    -2.239445    35.750603    5.437346    76.179893    8.851230    0.362278    106.395714    2.922005    -10.967654    19.378592    33.329102    -26.941416    7.794988    -27.585037    44.801514    0.305833    -4.775958    -18.194235    36.354469    0.000000    0.000000    0.000000    -28.431566    -8.321352    -8.610861    5.209135    30.530596    -6.949432    20.582281    -10.283093    -15.556689    0.000000    0.000000    0.000000    
